<?xml version="1.0" encoding="UTF-8"?>
<svg height="16px" viewBox="0 0 16 16" width="16px" xmlns="http://www.w3.org/2000/svg">
    <g fill="#2e3436">
        <path d="m 10.941406 0.046875 c -1.109375 0 -2 0.914063 -2 2.015625 v 4.777344 l -0.851562 0.855468 c -0.191406 0.1875 -0.199219 0.492188 -0.015625 0.691407 l 0.867187 0.949219 v 4.664062 c 0 0.65625 0.234375 1.210938 0.625 1.5625 c 0.386719 0.351562 0.894532 0.5 1.390625 0.484375 l -0.03125 -1 c -0.277343 0.007813 -0.519531 -0.070313 -0.6875 -0.222656 c -0.167969 -0.15625 -0.296875 -0.386719 -0.296875 -0.824219 v -4.859375 c 0 -0.125 -0.046875 -0.242187 -0.128906 -0.335937 l -0.679688 -0.742188 l 0.664063 -0.664062 c 0.09375 -0.09375 0.144531 -0.21875 0.144531 -0.351563 v -4.984375 c 0 -0.582031 0.421875 -1.015625 1 -1.015625 z m 0 0"/>
        <path d="m 4.941406 9.046875 s -0.707031 -0.015625 -1.445312 0.355469 c -0.738282 0.371094 -1.554688 1.3125 -1.554688 2.644531 v 1 h 2 v -1 c 0 -0.667969 0.1875 -0.726563 0.449219 -0.855469 c 0.257813 -0.128906 0.546875 -0.144531 0.550781 -0.144531 c 0 0 0.289063 0.015625 0.550782 0.148437 c 0.261718 0.128907 0.449218 0.1875 0.449218 0.855469 v 3.996094 h 2 v -3.996094 c 0 -1.332031 -0.8125 -2.277343 -1.550781 -2.644531 c -0.738281 -0.371094 -1.449219 -0.359375 -1.449219 -0.359375 z m 0 0"/>
        <path d="m 1.941406 9.046875 v 7 h 2 v -7 z m 0 0"/>
        <path d="m 12.957031 0.046875 v 1 c 0.578125 0 1 0.433594 1 1.015625 v 4.984375 c 0 0.132813 0.050781 0.257813 0.144531 0.351563 l 0.664063 0.664062 l -0.679687 0.742188 c -0.082032 0.09375 -0.128907 0.210937 -0.128907 0.335937 v 4.859375 c 0 0.4375 -0.128906 0.667969 -0.296875 0.824219 c -0.167968 0.152343 -0.410156 0.230469 -0.691406 0.222656 l -0.027344 1 c 0.496094 0.015625 1 -0.132813 1.390625 -0.484375 c 0.386719 -0.351562 0.625 -0.90625 0.625 -1.5625 v -4.664062 l 0.867188 -0.949219 c 0.179687 -0.199219 0.175781 -0.503907 -0.015625 -0.691407 l -0.851563 -0.855468 v -4.777344 c 0 -1.101562 -0.890625 -2.015625 -2 -2.015625 z m 0 0"/>
    </g>
</svg>
