<?xml version="1.0" encoding="UTF-8"?>
<svg height="16px" viewBox="0 0 16 16" width="16px" xmlns="http://www.w3.org/2000/svg">
    <path d="m 7.945312 1 c -3.855468 0 -7 3.148438 -7 7 c 0 3.855469 3.144532 7 7 7 c 3.851563 0 7 -3.144531 7 -7 c 0 -3.851562 -3.148437 -7 -7 -7 z m -0.925781 3 h 3 v 2 h -3 s -0.292969 0.011719 -0.558593 0.144531 c -0.265626 0.132813 -0.453126 0.195313 -0.460938 0.855469 h 5.019531 c 0.554688 0 1 0.449219 1 1 v 1 s 0.015625 0.710938 -0.351562 1.449219 c -0.371094 0.738281 -1.3125 1.550781 -2.648438 1.550781 h -3 v -2 h 3 c 0.667969 0 0.726563 -0.183594 0.855469 -0.445312 c 0.132812 -0.261719 0.144531 -0.554688 0.144531 -0.554688 h -5 c -0.542969 0 -0.984375 -0.433594 -1 -0.976562 l -0.019531 -1.015626 c 0 -0.007812 0 -0.019531 0 -0.03125 c 0.015625 -1.328124 0.835938 -2.257812 1.574219 -2.625 c 0.742187 -0.363281 1.445312 -0.351562 1.445312 -0.351562 z m 0 0" fill="#2e3436"/>
</svg>
