<?xml version="1.0" encoding="UTF-8"?>
<svg height="16px" viewBox="0 0 16 16" width="16px" xmlns="http://www.w3.org/2000/svg">
    <path d="m 8.019531 0.140625 c -0.179687 -0.003906 -0.363281 0.042969 -0.519531 0.132813 l -6 3.464843 c -0.308594 0.179688 -0.5 0.511719 -0.5 0.867188 v 6.929687 c 0 0.359375 0.191406 0.6875 0.5 0.867188 l 6 3.464844 c 0.308594 0.179687 0.691406 0.179687 1 0 l 6 -3.464844 c 0.308594 -0.179688 0.5 -0.507813 0.5 -0.867188 v -6.929687 c 0 -0.355469 -0.191406 -0.6875 -0.5 -0.867188 l -6 -3.464843 c -0.144531 -0.082032 -0.308594 -0.128907 -0.480469 -0.132813 z m -0.019531 2.15625 l 5 2.886719 v 5.773437 l -5 2.890625 l -5 -2.890625 v -5.773437 z m 0 0" fill="#2e3436"/>
    <path d="m 2.5 3.742188 l -1 1.730468 l 6 3.464844 c 0.308594 0.175781 0.691406 0.175781 1 0 l 6 -3.464844 l -1 -1.730468 l -5.5 3.175781 z m 0 0" fill="#2e3436"/>
    <path d="m 8 8.070312 v 6.929688" fill="none" stroke="#2e3436" stroke-width="2"/>
</svg>
