<?xml version="1.0" encoding="UTF-8"?>
<svg height="16px" viewBox="0 0 16 16" width="16px" xmlns="http://www.w3.org/2000/svg">
    <path d="m 7.945312 1 c -3.855468 0 -7 3.148438 -7 7 c 0 3.855469 3.144532 7 7 7 c 3.855469 0 7 -3.144531 7 -7 c 0 -3.851562 -3.144531 -7 -7 -7 z m -0.945312 3 h 2 s 0.707031 -0.011719 1.445312 0.351562 c 0.742188 0.367188 1.5625 1.296876 1.578126 2.625 v 0.015626 l -0.042969 2.007812 h -5.980469 s 0.015625 0.292969 0.144531 0.554688 c 0.132813 0.261718 0.191407 0.445312 0.855469 0.445312 h 3 v 2 h -3 c -1.332031 0 -2.273438 -0.8125 -2.640625 -1.550781 c -0.371094 -0.738281 -0.359375 -1.449219 -0.359375 -1.449219 v -2 s -0.011719 -0.707031 0.359375 -1.445312 c 0.367187 -0.738282 1.308594 -1.554688 2.640625 -1.554688 z m 0 2 c -0.664062 0 -0.722656 0.1875 -0.855469 0.449219 c -0.128906 0.261719 -0.144531 0.550781 -0.144531 0.550781 h 4.023438 c -0.007813 -0.660156 -0.195313 -0.722656 -0.460938 -0.855469 c -0.265625 -0.132812 -0.5625 -0.144531 -0.5625 -0.144531 z m 0 0" fill="#2e3436"/>
</svg>
