<?xml version="1.0" encoding="UTF-8"?>
<svg height="16px" viewBox="0 0 16 16" width="16px" xmlns="http://www.w3.org/2000/svg">
    <g fill="#2e3436">
        <path d="m 3 1 s -0.476562 -0.011719 -0.972656 0.25 c -0.492188 0.265625 -1.027344 0.976562 -1.027344 1.820312 v 4.929688 c 0 0.265625 0.105469 0.519531 0.292969 0.707031 l 6 6 c 0.390625 0.390625 1.023437 0.390625 1.414062 0 l 6 -6 c 0.390625 -0.390625 0.390625 -1.023437 0 -1.414062 l -6 -6 c -0.1875 -0.1875 -0.441406 -0.292969 -0.707031 -0.292969 z m 0 2 h 4.585938 l 5 5 l -4.585938 4.585938 l -5 -5 v -4.515626 c 0 -0.222656 -0.03125 -0.050781 -0.027344 -0.054687 c 0.007813 -0.003906 0.027344 -0.015625 0.027344 -0.015625 z m 0 0" fill-rule="evenodd"/>
        <path d="m 6 5 c 0 0.550781 -0.445312 1 -1 1 c -0.550781 0 -1 -0.449219 -1 -1 s 0.449219 -1 1 -1 c 0.554688 0 1 0.449219 1 1 z m 0 0"/>
    </g>
</svg>
