<?xml version="1.0" encoding="UTF-8"?>
<svg height="15.953125px" viewBox="0 0 16 15.953125" width="16px" xmlns="http://www.w3.org/2000/svg">
    <path d="m 10.941406 0.046875 c -1.109375 0 -2 0.910156 -2 2.011719 v 4.761718 l -0.851562 0.851563 c -0.191406 0.1875 -0.199219 0.492187 -0.015625 0.6875 l 0.867187 0.949219 v 4.648437 c 0 0.65625 0.234375 1.207031 0.625 1.558594 c 0.386719 0.351563 0.894532 0.496094 1.390625 0.484375 l -0.03125 -0.996094 c -0.277343 0.007813 -0.519531 -0.074218 -0.6875 -0.226562 s -0.296875 -0.382813 -0.296875 -0.820313 v -4.84375 c 0 -0.125 -0.046875 -0.242187 -0.128906 -0.335937 l -0.679688 -0.738282 l 0.664063 -0.660156 c 0.09375 -0.09375 0.144531 -0.222656 0.144531 -0.351562 v -4.96875 c 0 -0.585938 0.421875 -1.015625 1 -1.015625 z m 0 0" fill="#2e3436"/>
    <path d="m 5.941406 5.03125 c -1.332031 0 -2.277344 0.8125 -2.644531 1.546875 c -0.371094 0.738281 -0.359375 1.445313 -0.359375 1.445313 l 0.023438 4.976562 s -0.015626 0.289062 -0.152344 0.554688 c -0.132813 0.261718 -0.199219 0.449218 -0.867188 0.449218 h -1 v 1.996094 h 1 c 1.335938 0 2.277344 -0.808594 2.652344 -1.542969 c 0.375 -0.730469 0.367188 -1.4375 0.367188 -1.4375 v -0.007812 l -0.023438 -4.988281 s 0.015625 -0.289063 0.144531 -0.550782 c 0.132813 -0.261718 0.195313 -0.445312 0.859375 -0.445312 h 1 v -1.996094 z m 0 0" fill="#2e3436"/>
    <path d="m 169.07536 205.049468 h -3" fill="none" stroke="#2e3436" stroke-linecap="square" stroke-width="2" transform="matrix(1 0 0 0.997021 -163.133954 -194.419037)"/>
    <path d="m 12.957031 0.046875 v 0.996094 c 0.578125 0 1 0.429687 1 1.015625 v 4.96875 c 0 0.128906 0.050781 0.257812 0.144531 0.351562 l 0.664063 0.660156 l -0.679687 0.738282 c -0.082032 0.09375 -0.128907 0.210937 -0.128907 0.335937 v 4.84375 c 0 0.4375 -0.128906 0.667969 -0.296875 0.820313 c -0.167968 0.152344 -0.410156 0.234375 -0.691406 0.226562 l -0.027344 0.996094 c 0.496094 0.011719 1 -0.132812 1.390625 -0.484375 c 0.386719 -0.351563 0.625 -0.902344 0.625 -1.558594 v -4.648437 l 0.867188 -0.949219 c 0.179687 -0.195313 0.175781 -0.5 -0.015625 -0.6875 l -0.851563 -0.851563 v -4.761718 c 0 -1.101563 -0.890625 -2.011719 -2 -2.011719 z m 0 0" fill="#2e3436"/>
</svg>
