<?xml version="1.0" encoding="UTF-8"?>
<svg height="16px" viewBox="0 0 16 16" width="16px" xmlns="http://www.w3.org/2000/svg">
    <path d="m 7.808594 0.0078125 c -0.335938 0.0390625 -0.65625 0.1914065 -0.894532 0.4296875 l -6.492187 6.527344 c -0.546875 0.554687 -0.546875 1.546875 0 2.101562 l 6.527344 6.527344 c 0.554687 0.542969 1.550781 0.542969 2.105469 0 l 6.53125 -6.492188 c 0.566406 -0.554687 0.566406 -1.582031 0 -2.136718 l -6.53125 -6.527344 c -0.035157 -0.027344 -0.070313 -0.050781 -0.105469 -0.070312 c -0.308594 -0.2695318 -0.734375 -0.4023442 -1.140625 -0.3593755 z m -0.808594 3.9921875 h 2 s 0.707031 -0.011719 1.445312 0.351562 c 0.738282 0.367188 1.5625 1.296876 1.574219 2.625 v 0.015626 l -0.039062 2.007812 h -5.980469 s 0.015625 0.292969 0.144531 0.554688 c 0.128907 0.261718 0.1875 0.445312 0.855469 0.445312 h 3 v 2 h -3 c -1.332031 0 -2.273438 -0.8125 -2.644531 -1.550781 c -0.371094 -0.738281 -0.355469 -1.449219 -0.355469 -1.449219 v -2 s -0.015625 -0.707031 0.355469 -1.445312 c 0.371093 -0.738282 1.3125 -1.554688 2.644531 -1.554688 z m 0 2 c -0.667969 0 -0.726562 0.1875 -0.855469 0.449219 c -0.128906 0.261719 -0.144531 0.550781 -0.144531 0.550781 h 4.019531 c -0.003906 -0.660156 -0.191406 -0.722656 -0.457031 -0.855469 c -0.269531 -0.132812 -0.5625 -0.144531 -0.5625 -0.144531 z m 0 0" fill="#2e3436"/>
</svg>
