<?xml version="1.0" encoding="UTF-8"?>
<svg height="16px" viewBox="0 0 16 16" width="16px" xmlns="http://www.w3.org/2000/svg">
    <g fill="#2e3436">
        <path d="m 10.941406 0.046875 c -1.109375 0 -2 0.914063 -2 2.015625 v 4.777344 l -0.855468 0.855468 c -0.1875 0.1875 -0.195313 0.492188 -0.015626 0.691407 l 0.871094 0.949219 v 4.664062 c 0 0.65625 0.234375 1.210938 0.621094 1.5625 c 0.390625 0.351562 0.898438 0.5 1.390625 0.484375 l -0.027344 -1 c -0.28125 0.007813 -0.523437 -0.070313 -0.691406 -0.222656 c -0.167969 -0.15625 -0.292969 -0.386719 -0.292969 -0.824219 v -4.859375 c 0 -0.125 -0.046875 -0.242187 -0.132812 -0.335937 l -0.675782 -0.742188 l 0.660157 -0.664062 c 0.09375 -0.09375 0.148437 -0.21875 0.148437 -0.351563 v -4.984375 c 0 -0.582031 0.421875 -1.015625 1 -1.015625 z m 0 0"/>
        <path d="m 4.941406 9.046875 c -1.335937 0 -2.277344 0.8125 -2.644531 1.554687 c -0.371094 0.738282 -0.355469 1.445313 -0.355469 1.445313 v 1 s -0.015625 0.707031 0.355469 1.445313 c 0.367187 0.742187 1.308594 1.554687 2.644531 1.554687 h 2 v -2 h -2 c -0.667968 0 -0.726562 -0.1875 -0.855468 -0.445313 c -0.132813 -0.261718 -0.144532 -0.554687 -0.144532 -0.554687 v -1 s 0.011719 -0.292969 0.140625 -0.554687 c 0.132813 -0.257813 0.191407 -0.445313 0.859375 -0.445313 h 2 v -2 z m 0 0"/>
        <path d="m 12.953125 0.046875 v 1 c 0.578125 0 1 0.433594 1 1.015625 v 4.984375 c 0 0.132813 0.054687 0.257813 0.148437 0.351563 l 0.660157 0.664062 l -0.675781 0.742188 c -0.085938 0.09375 -0.132813 0.210937 -0.132813 0.335937 v 4.859375 c 0 0.4375 -0.128906 0.667969 -0.296875 0.824219 c -0.167969 0.152343 -0.410156 0.230469 -0.6875 0.222656 l -0.027344 1 c 0.492188 0.015625 1 -0.132813 1.386719 -0.484375 c 0.390625 -0.351562 0.625 -0.90625 0.625 -1.5625 v -4.664062 l 0.871094 -0.949219 c 0.179687 -0.199219 0.171875 -0.503907 -0.015625 -0.691407 l -0.855469 -0.855468 v -4.777344 c 0 -1.101562 -0.890625 -2.015625 -2 -2.015625 z m 0 0"/>
    </g>
</svg>
